<?xml version="1.0" encoding="UTF-8"?>
<svg version="1.1" xmlns="http://www.w3.org/2000/svg" width="108" height="100">
<path d="M0 0 C0.70810318 0.00090637 1.41620636 0.00181274 2.14576721 0.00274658 C2.89226532 -0.00397064 3.63876343 -0.01068787 4.40788269 -0.01760864 C6.88250838 -0.03665045 9.35686378 -0.04051584 11.83155823 -0.04266357 C13.54787306 -0.04908699 15.26418678 -0.055815 16.98049927 -0.06283569 C20.58102457 -0.07482376 24.18145382 -0.07851493 27.78199768 -0.07733154 C32.40043005 -0.07712821 37.01824803 -0.10443763 41.63653469 -0.13887596 C45.18211711 -0.16109033 48.72755037 -0.16517078 52.27319527 -0.16411209 C53.97609132 -0.16647603 55.67899101 -0.17534394 57.38181877 -0.19077682 C59.76190862 -0.21032828 62.14065672 -0.20464282 64.52076721 -0.19256592 C65.22684616 -0.20380493 65.93292511 -0.21504395 66.66040039 -0.22662354 C69.74838192 -0.18671587 71.47378153 -0.07945473 73.83477783 1.99514771 C75.08573862 4.69915625 75.27842898 6.57184404 75.28614807 9.5491333 C75.29560455 10.59702026 75.30506104 11.64490723 75.31480408 12.72454834 C75.30873138 13.85066528 75.30265869 14.97678223 75.29640198 16.13702393 C75.29927216 17.29826782 75.30214233 18.45951172 75.30509949 19.65594482 C75.30714041 22.11041756 75.30160862 24.56490655 75.28907776 27.01934814 C75.27302544 30.77899502 75.28892647 34.53756679 75.30812073 38.29718018 C75.3061383 40.68129714 75.30229464 43.06541342 75.29640198 45.44952393 C75.30247467 46.57564087 75.30854736 47.70175781 75.31480408 48.86199951 C75.30061935 50.43382996 75.30061935 50.43382996 75.28614807 52.03741455 C75.28376129 52.95800659 75.28137451 53.87859863 75.27891541 54.8270874 C74.80010805 57.92677335 74.26776923 59.21093152 71.89796448 61.29327393 C69.29865644 61.68626803 67.12007707 61.82048829 64.52076721 61.77911377 C63.77251678 61.78291046 63.02426636 61.78670715 62.25334167 61.7906189 C59.77898805 61.79803117 57.30580753 61.77663578 54.83155823 61.75421143 C53.11427956 61.75182752 51.39699826 61.75092157 49.67971802 61.75143433 C46.08083266 61.7483053 42.4823454 61.73173098 38.88356018 61.70489502 C34.26408149 61.67088934 29.6450399 61.66326707 25.02545071 61.66478539 C21.47989711 61.66424231 17.93443961 61.6532857 14.38891792 61.6387825 C12.6852243 61.63240632 10.98151977 61.6284737 9.27781487 61.62699509 C6.90027576 61.62267214 4.52320595 61.60519421 2.14576721 61.58380127 C1.08361244 61.58516083 1.08361244 61.58516083 0 61.58654785 C-4.87307686 61.52223259 -4.87307686 61.52223259 -7.10203552 59.29327393 C-7.35600281 56.90228271 -7.35600281 56.90228271 -7.36082458 53.86553955 C-7.36712891 52.73096313 -7.37343323 51.59638672 -7.37992859 50.4274292 C-7.37588013 49.19722046 -7.37183167 47.96701172 -7.36766052 46.69952393 C-7.36957397 45.44192261 -7.37148743 44.18432129 -7.37345886 42.88861084 C-7.37482201 40.22534517 -7.37211558 37.56244463 -7.36277771 34.89923096 C-7.35138304 31.48255998 -7.357943 28.0662032 -7.36992264 24.64954376 C-7.37888006 21.39535913 -7.3726118 18.14121265 -7.36766052 14.88702393 C-7.37170898 13.65681519 -7.37575745 12.42660645 -7.37992859 11.15911865 C-7.37362427 10.02454224 -7.36731995 8.88996582 -7.36082458 7.7210083 C-7.3592334 6.71888306 -7.35764221 5.71675781 -7.35600281 4.68426514 C-6.85129344 -0.0673534 -4.16231273 0.05493454 0 0 Z M10.89796448 15.29327393 C10.80957799 17.66868443 10.78258924 20.01560973 10.80030823 22.39093018 C10.80280579 23.68780762 10.80530334 24.98468506 10.80787659 26.32086182 C10.81698059 27.98238281 10.82608459 29.64390381 10.83546448 31.35577393 C10.85608948 36.61514893 10.87671448 41.87452393 10.89796448 47.29327393 C22.11796448 47.29327393 33.33796448 47.29327393 44.89796448 47.29327393 C45.39296448 49.76827393 45.39296448 49.76827393 45.89796448 52.29327393 C46.43421448 51.65389893 46.97046448 51.01452393 47.52296448 50.35577393 C50.35902866 47.89287608 52.2412692 47.76914523 55.89796448 47.29327393 C55.9226184 42.75429688 55.94080236 38.2153585 55.95289612 33.67633057 C55.95793587 32.13107627 55.96476767 30.58582676 55.97340393 29.04058838 C55.98548524 26.82402364 55.9911962 24.60752174 55.99562073 22.39093018 C56.00336266 21.3487307 56.00336266 21.3487307 56.01126099 20.28547668 C56.01145725 18.62098063 55.95985577 16.95661894 55.89796448 15.29327393 C54.36712023 13.76242968 52.98593304 14.16611614 50.8530426 14.16387939 C49.99545349 14.16072723 49.13786438 14.15757507 48.25428772 14.15432739 C46.85587646 14.15736374 46.85587646 14.15736374 45.42921448 14.16046143 C44.47857117 14.1595047 43.52792786 14.15854797 42.54847717 14.15756226 C40.53427566 14.15688036 38.52007196 14.15873531 36.50587463 14.16290283 C33.41126093 14.16825095 30.31679238 14.16295816 27.22218323 14.15655518 C25.27035999 14.15721596 23.31853684 14.15849711 21.36671448 14.16046143 C20.43444031 14.15843719 19.50216614 14.15641296 18.54164124 14.15432739 C17.68405212 14.15747955 16.82646301 14.16063171 15.94288635 14.16387939 C14.80490601 14.16507278 14.80490601 14.16507278 13.64393616 14.16629028 C11.86919136 14.10406305 11.86919136 14.10406305 10.89796448 15.29327393 Z " fill="#22438A" transform="translate(7.1020355224609375,38.70672607421875)"/>
<path d="M0 0 C1.11761719 -0.00386719 1.11761719 -0.00386719 2.2578125 -0.0078125 C3.41023438 0.00378906 3.41023438 0.00378906 4.5859375 0.015625 C5.36195312 0.00789062 6.13796875 0.00015625 6.9375 -0.0078125 C12.70753484 0.01222234 12.70753484 0.01222234 14.9609375 2.265625 C15.15987227 5.29826875 15.23356824 8.23963066 15.21972656 11.2734375 C15.2232312 12.20685974 15.22673584 13.14028198 15.23034668 14.10198975 C15.23917452 17.19827637 15.23331111 20.29433591 15.2265625 23.390625 C15.22790885 25.53531946 15.22984912 27.68001362 15.23236084 29.82470703 C15.23531353 34.32392273 15.23100978 38.82305913 15.22167969 43.32226562 C15.21028511 49.09972445 15.2168438 54.87699747 15.22882462 60.65444946 C15.23603929 65.08440561 15.23375709 69.51431745 15.22856903 73.9442749 C15.22723145 76.07501243 15.22888403 78.20575393 15.23352814 80.33648682 C15.2385869 83.31037101 15.23089226 86.28395105 15.21972656 89.2578125 C15.22377502 90.14515076 15.22782349 91.03248901 15.23199463 91.94671631 C15.1894651 98.0370974 15.1894651 98.0370974 12.9609375 100.265625 C10.12880589 100.4649883 7.41621382 100.54383373 4.5859375 100.515625 C3.81765625 100.52335937 3.049375 100.53109375 2.2578125 100.5390625 C1.51273438 100.53648438 0.76765625 100.53390625 0 100.53125 C-0.67853027 100.52899414 -1.35706055 100.52673828 -2.05615234 100.52441406 C-4.0390625 100.265625 -4.0390625 100.265625 -8.0390625 98.265625 C-8.0390625 66.585625 -8.0390625 34.905625 -8.0390625 2.265625 C-3.53129296 0.01174023 -3.53129296 0.01174023 0 0 Z " fill="#5EB845" transform="translate(93.0390625,-0.265625)"/>
<path d="M0 0 C2.04258728 -0.38768005 2.04258728 -0.38768005 4.58569336 -0.40405273 C6.01243629 -0.42307899 6.01243629 -0.42307899 7.46800232 -0.44248962 C9.01331383 -0.43808617 9.01331383 -0.43808617 10.58984375 -0.43359375 C11.64530899 -0.4388356 12.70077423 -0.44407745 13.78822327 -0.44947815 C16.02343871 -0.45591011 18.25868795 -0.45454625 20.49389648 -0.44604492 C23.92037089 -0.4375425 27.34517519 -0.46626933 30.77148438 -0.49804688 C32.94010367 -0.49965905 35.10872592 -0.49908104 37.27734375 -0.49609375 C38.81961891 -0.51294472 38.81961891 -0.51294472 40.39305115 -0.53013611 C41.34736526 -0.52075516 42.30167938 -0.51137421 43.28491211 -0.50170898 C44.54494301 -0.50145973 44.54494301 -0.50145973 45.83042908 -0.50120544 C48 0 48 0 49.7694397 1.87023926 C52.22090797 6.11305521 51.46859223 11.16343009 51.4375 15.9375 C51.4674707 17.56461914 51.4674707 17.56461914 51.49804688 19.22460938 C51.49740234 20.27326172 51.49675781 21.32191406 51.49609375 22.40234375 C51.49887329 23.83308228 51.49887329 23.83308228 51.50170898 25.29272461 C50.80396509 29.05782534 49.96057913 30.52437667 47 33 C43.5502768 33.72497331 40.16584848 33.65276303 36.65234375 33.59375 C35.13997887 33.59381042 35.13997887 33.59381042 33.59706116 33.59387207 C31.46788288 33.58851515 29.33870522 33.57092521 27.2097168 33.54199219 C23.94583942 33.50010702 20.68402287 33.50092569 17.41992188 33.5078125 C15.35154812 33.49732122 13.28318503 33.48438346 11.21484375 33.46875 C10.23668198 33.46854858 9.2585202 33.46834717 8.25071716 33.46813965 C7.34289993 33.45222778 6.4350827 33.43631592 5.49975586 33.41992188 C4.70129745 33.41150269 3.90283905 33.4030835 3.08018494 33.39440918 C0.47723026 32.90088132 -0.41904367 32.09639184 -2 30 C-2.37231445 27.22851562 -2.37231445 27.22851562 -2.36328125 23.90625 C-2.36263672 22.71128906 -2.36199219 21.51632813 -2.36132812 20.28515625 C-2.34521484 19.03605469 -2.32910156 17.78695313 -2.3125 16.5 C-2.31572266 15.25089844 -2.31894531 14.00179688 -2.32226562 12.71484375 C-2.26700255 3.40050383 -2.26700255 3.40050383 0 0 Z " fill="#5FB946" transform="translate(31,0)"/>
<path d="M0 0 C2.01538086 -0.38818359 2.01538086 -0.38818359 4.46484375 -0.3984375 C5.34720703 -0.40230469 6.22957031 -0.40617188 7.13867188 -0.41015625 C8.5240918 -0.39275391 8.5240918 -0.39275391 9.9375 -0.375 C11.31711914 -0.39240234 11.31711914 -0.39240234 12.72460938 -0.41015625 C13.60826172 -0.40628906 14.49191406 -0.40242187 15.40234375 -0.3984375 C16.21179443 -0.39505371 17.02124512 -0.39166992 17.85522461 -0.38818359 C20.46822459 0.08474412 21.29585951 1.02863932 23 3 C23.33 3 23.66 3 24 3 C24.14483042 7.43715855 24.23391752 11.87371277 24.3125 16.3125 C24.35439453 17.57513672 24.39628906 18.83777344 24.43945312 20.13867188 C24.45556641 21.34716797 24.47167969 22.55566406 24.48828125 23.80078125 C24.51446533 24.91622314 24.54064941 26.03166504 24.56762695 27.1809082 C24 30 24 30 21.72363281 31.86254883 C19.21493332 32.91023894 17.61422931 33.38470574 14.93359375 33.3984375 C14.20076172 33.40230469 13.46792969 33.40617187 12.71289062 33.41015625 C11.58657227 33.39275391 11.58657227 33.39275391 10.4375 33.375 C9.68275391 33.38660156 8.92800781 33.39820313 8.15039062 33.41015625 C5.05925854 33.39381546 2.5572413 33.28754903 -0.21704102 31.85595703 C-2.73658628 29.23325634 -2.48787036 27.49941017 -2.4609375 23.90625 C-2.45707031 22.71128906 -2.45320312 21.51632813 -2.44921875 20.28515625 C-2.42472656 19.03605469 -2.40023438 17.78695313 -2.375 16.5 C-2.37371094 15.25089844 -2.37242188 14.00179688 -2.37109375 12.71484375 C-2.28086515 3.42129772 -2.28086515 3.42129772 0 0 Z " fill="#214389" transform="translate(2,0)"/>
<path d="M0 0 C0.66 0 1.32 0 2 0 C2 30.36 2 60.72 2 92 C1.34 92 0.68 92 0 92 C0 61.64 0 31.28 0 0 Z " fill="#619169" transform="translate(83,4)"/>
<path d="M0 0 C14.19 0 28.38 0 43 0 C43 10.23 43 20.46 43 31 C41.68 30.67 40.36 30.34 39 30 C39.99 30 40.98 30 42 30 C42 20.43 42 10.86 42 1 C28.14 1 14.28 1 0 1 C0 0.67 0 0.34 0 0 Z " fill="#3D5682" transform="translate(19,54)"/>
<path d="M0 0 C10.56 0 21.12 0 32 0 C31.67 0.99 31.34 1.98 31 3 C20.77 2.67 10.54 2.34 0 2 C0 1.34 0 0.68 0 0 Z " fill="#25427A" transform="translate(20,86)"/>
<path d="M0 0 C15.18 0 30.36 0 46 0 C46 0.33 46 0.66 46 1 C30.82 1 15.64 1 0 1 C0 0.67 0 0.34 0 0 Z " fill="#79BB68" transform="translate(32,34)"/>
<path d="M0 0 C10.56 0 21.12 0 32 0 C32 0.33 32 0.66 32 1 C21.44 1 10.88 1 0 1 C0 0.67 0 0.34 0 0 Z " fill="#2D4168" transform="translate(19,84)"/>
<path d="M0 0 C0.33 0 0.66 0 1 0 C1 8.91 1 17.82 1 27 C0.67 27 0.34 27 0 27 C0 18.09 0 9.18 0 0 Z " fill="#55BE37" transform="translate(27,3)"/>
<path d="M0 0 C5.61 0 11.22 0 17 0 C17 0.33 17 0.66 17 1 C11.39 1 5.78 1 0 1 C0 0.67 0 0.34 0 0 Z " fill="#3E588A" transform="translate(4,34)"/>
<path d="" fill="#284689" transform="translate(0,0)"/>
<path d="" fill="#2C4473" transform="translate(0,0)"/>
<path d="" fill="#5EB442" transform="translate(0,0)"/>
<path d="" fill="#68B850" transform="translate(0,0)"/>
<path d="" fill="#6DAD5A" transform="translate(0,0)"/>
<path d="" fill="#274275" transform="translate(0,0)"/>
<path d="" fill="#54A039" transform="translate(0,0)"/>
<path d="" fill="#284280" transform="translate(0,0)"/>
<path d="" fill="#506FA0" transform="translate(0,0)"/>
<path d="" fill="#424B48" transform="translate(0,0)"/>
<path d="" fill="#5EB84F" transform="translate(0,0)"/>
<path d="" fill="#6EB05A" transform="translate(0,0)"/>
<path d="" fill="#374C37" transform="translate(0,0)"/>
<path d="" fill="#385287" transform="translate(0,0)"/>
<path d="" fill="#3C992A" transform="translate(0,0)"/>
<path d="" fill="#59B441" transform="translate(0,0)"/>
<path d="" fill="#204168" transform="translate(0,0)"/>
<path d="" fill="#27447F" transform="translate(0,0)"/>
<path d="" fill="#5DB442" transform="translate(0,0)"/>
<path d="" fill="#1E4173" transform="translate(0,0)"/>
<path d="" fill="#5CAA44" transform="translate(0,0)"/>
<path d="" fill="#69AE57" transform="translate(0,0)"/>
<path d="" fill="#5FB647" transform="translate(0,0)"/>
<path d="" fill="#6FB75D" transform="translate(0,0)"/>
</svg>
